<svg xmlns="http://www.w3.org/2000/svg" xmlns:xlink="http://www.w3.org/1999/xlink" width="206.087" height="73.568" viewBox="0 0 206.087 73.568">
  <defs>
    <clipPath id="clip-path">
      <rect id="Rectangle_1410" data-name="Rectangle 1410" width="206.087" height="73.568" fill="none"/>
    </clipPath>
  </defs>
  <g id="Group_5161" data-name="Group 5161" transform="translate(-1019 -144.687)">
    <g id="Group_5151" data-name="Group 5151" transform="translate(1019 144.687)">
      <g id="Group_5141" data-name="Group 5141" transform="translate(0 0)">
        <g id="Group_5140" data-name="Group 5140" transform="translate(0 0)" clip-path="url(#clip-path)">
          <path id="Path_4795" data-name="Path 4795" d="M0,30.063c0-8.1,4.656-13.718,11.338-13.718a8.066,8.066,0,0,1,7.239,3.7h.152V6.826h8.252v36.2h-7.9V39.53h-.1a8.532,8.532,0,0,1-7.644,4.305C4.706,43.836,0,38.72,0,30.063m18.931,0c0-4.352-1.769-7.488-5.365-7.488-3.292,0-5.213,3.035-5.213,7.391,0,4.5,1.921,7.336,5.112,7.336,3.444,0,5.466-2.984,5.466-7.239" transform="translate(0 21.986)" fill="#1c447b"/>
          <path id="Path_4796" data-name="Path 4796" d="M6.755,22.816c0-7.8,5.572-13.723,13.874-13.723,8.353,0,13.82,5.922,13.82,13.723s-5.466,13.718-13.82,13.718c-8.3,0-13.874-5.922-13.874-13.718m19.341,0c0-4.711-1.925-7.9-5.517-7.9s-5.47,3.187-5.47,7.9,1.874,7.843,5.47,7.843S26.1,27.522,26.1,22.816" transform="translate(21.758 29.288)" fill="#1c447b"/>
          <path id="Path_4797" data-name="Path 4797" d="M13.68,9.841h7.948v3.546h.152a9.083,9.083,0,0,1,8-4.305c5.669,0,9.012,4.052,9.012,9.822V35.762H30.539V20.575c0-2.731-1.368-4.609-4.052-4.609-2.731,0-4.554,2.279-4.554,5.47V35.762H13.68Z" transform="translate(44.064 29.249)" fill="#1c447b"/>
          <path id="Path_4798" data-name="Path 4798" d="M20.219,9.838h7.9v3.145h.148a9.431,9.431,0,0,1,7.851-3.9C43,9.082,47.2,15,47.2,22.8c0,8.4-4.5,13.769-11.291,13.769a8.629,8.629,0,0,1-7.34-3.5h-.1l.1,9.378H20.316ZM38.851,23.1c0-4.457-1.672-7.391-5.213-7.391-3.6,0-5.42,3.191-5.42,7.391s2.026,7.087,5.572,7.087c3.136,0,5.061-2.685,5.061-7.087" transform="translate(65.126 29.252)" fill="#1c447b"/>
          <path id="Path_4799" data-name="Path 4799" d="M26.688,28.48c0-5.719,4.554-7.437,9.919-8.147,4.858-.612,6.581-1.114,6.581-2.887,0-1.672-1.064-2.786-3.546-2.786-2.63,0-3.942,1.165-4.2,3.343H27.849c.2-4.812,3.9-8.911,11.751-8.911,3.892,0,6.521.709,8.4,2.127,2.229,1.617,3.292,4.149,3.292,7.391v13.06c0,2.077.2,3.242.912,3.693v.355h-8a7.186,7.186,0,0,1-.861-2.883h-.1c-1.52,2.174-3.8,3.546-7.695,3.546-5.162,0-8.856-2.79-8.856-7.9m16.707-2.022V23.373a20.5,20.5,0,0,1-4.251,1.363c-3.2.709-4.512,1.52-4.512,3.5,0,2.073,1.524,2.887,3.546,2.887,3.086,0,5.217-1.878,5.217-4.66" transform="translate(85.962 29.288)" fill="#1c447b"/>
          <path id="Path_4800" data-name="Path 4800" d="M41.166,39.734h-.1v3.288h-7.9V6.827h8.252V20.043h.152a8.477,8.477,0,0,1,7.391-3.7c6.733,0,11.089,5.922,11.089,13.718,0,8.607-4.356,13.769-11.038,13.769a8.714,8.714,0,0,1-7.847-4.1M51.7,30.013c0-4.457-1.773-7.391-5.112-7.391-3.647,0-5.42,3.191-5.42,7.442,0,4.3,2.127,7.239,5.521,7.239,3.238,0,5.01-2.786,5.01-7.29" transform="translate(106.831 21.989)" fill="#1c447b"/>
          <rect id="Rectangle_1409" data-name="Rectangle 1409" width="8.353" height="36.195" transform="translate(168.465 28.813)" fill="#1c447b"/>
          <path id="Path_4801" data-name="Path 4801" d="M42.263,22.816c0-7.8,5.572-13.723,13.874-13.723,8.353,0,13.82,5.922,13.82,13.723s-5.466,13.718-13.82,13.718c-8.3,0-13.874-5.922-13.874-13.718m19.341,0c0-4.711-1.925-7.9-5.517-7.9s-5.47,3.187-5.47,7.9,1.874,7.843,5.47,7.843S61.6,27.522,61.6,22.816" transform="translate(136.13 29.288)" fill="#1c447b"/>
          <path id="Path_4802" data-name="Path 4802" d="M32.364,20.721a15.392,15.392,0,0,0-1.807.853,9.3,9.3,0,0,0-.979.553A14.3,14.3,0,0,0,26.94,24.41a9.32,9.32,0,0,0-2.035,3.719v.025a9.939,9.939,0,0,0-.274,3.364C16.4,23,16.2,11.887,21.787,5.213c7.61-9.1,18.138-4.778,19.97,1.5,1.629,5.521-.5,10.392-9.392,14.01" transform="translate(57.856 -0.001)" fill="#c0051d"/>
          <path id="Path_4803" data-name="Path 4803" d="M24.946,1.066l1.5,3.048,3.364.49L27.381,6.975l.574,3.351-3.01-1.583-3.01,1.583.574-3.351L20.079,4.6l3.364-.49Z" transform="translate(64.674 3.432)" fill="#ffc400"/>
        </g>
      </g>
    </g>
  </g>
</svg>
