<svg id="Group_296" data-name="Group 296" xmlns="http://www.w3.org/2000/svg" width="31.871" height="31.871" viewBox="0 0 31.871 31.871">
  <g id="Group_295" data-name="Group 295">
    <g id="Path_616" data-name="Path 616">
      <path id="Path_615" data-name="Path 615" d="M432.491,286.214a15.925,15.925,0,1,0,4.675,11.266A15.888,15.888,0,0,0,432.491,286.214Zm-11.266,25.517a14.249,14.249,0,0,1-10.07-24.331,14.1,14.1,0,0,1,4.615-3.093,14.254,14.254,0,1,1,5.455,27.424Z" transform="translate(-405.295 -281.54)" fill="#19212b"/>
      <path id="Path_616-2" data-name="Path 616" d="M429.467,292.816l-.237.346a5.961,5.961,0,0,1-1.413,1.492v.465a8.387,8.387,0,0,1-8.38,8.232h-.168a8.568,8.568,0,0,1-4.586-1.325l-.455-.3.544.069a5.4,5.4,0,0,0,.7.04,5.754,5.754,0,0,0,3.291-1.038,3.077,3.077,0,0,1-2.52-2.065l-.07-.208.208.04a2.747,2.747,0,0,0,.751.039,3.031,3.031,0,0,1-1.927-2.836v-.247l.178.1a2.961,2.961,0,0,0,.84.306,2.962,2.962,0,0,1-.583-3.746l.089-.148.118.129a8.307,8.307,0,0,0,5.831,2.984,3.214,3.214,0,0,1-.05-.533,3.055,3.055,0,0,1,3.044-2.995h.04a3.105,3.105,0,0,1,2.194.909,5.787,5.787,0,0,0,1.769-.691l.276-.168-.1.316a3.082,3.082,0,0,1-.92,1.364,6.471,6.471,0,0,0,1.147-.366Z" transform="translate(-405.295 -281.54)" fill="#19212b"/>
    </g>
  </g>
</svg>
