<svg xmlns="http://www.w3.org/2000/svg" width="33" height="32.999" viewBox="0 0 33 32.999">
  <path id="Union_2" data-name="Union 2" d="M0,16A16,16,0,1,1,16,32,16.018,16.018,0,0,1,0,16Zm1.719,0A14.281,14.281,0,1,0,16,1.719,14.3,14.3,0,0,0,1.719,16Zm12.014,9.59a.242.242,0,0,1-.242-.241V15.923H11.769a.24.24,0,0,1-.24-.241V12.843a.24.24,0,0,1,.24-.241h1.722V9.865A3.454,3.454,0,0,1,16.945,6.41H20.2a.242.242,0,0,1,.241.241V9.491a.242.242,0,0,1-.241.241H18.272a.854.854,0,0,0-.854.854V12.6h2.736a.242.242,0,0,1,.241.262l-.24,2.839a.242.242,0,0,1-.241.221h-2.5v9.425a.243.243,0,0,1-.242.241Z" transform="translate(0.5 0.5)" fill="#19212b" stroke="rgba(0,0,0,0)" stroke-width="1"/>
</svg>
