<svg xmlns="http://www.w3.org/2000/svg" width="33" height="33" viewBox="0 0 33 33">
  <g id="Group_106" data-name="Group 106" transform="translate(0.5 0.5)">
    <g id="Group_103" data-name="Group 103" transform="translate(0)">
      <path id="Path_302" data-name="Path 302" d="M388.854,300.094a16,16,0,1,1,16-16A16.018,16.018,0,0,1,388.854,300.094Zm0-30.278a14.278,14.278,0,1,0,14.278,14.278A14.294,14.294,0,0,0,388.854,269.816Z" transform="translate(-372.854 -268.094)" fill="#19212b" stroke="rgba(0,0,0,0)" stroke-width="1"/>
    </g>
    <g id="Group_105" data-name="Group 105" transform="translate(8.381 12.32)">
      <g id="Group_104" data-name="Group 104">
        <path id="Path_303" data-name="Path 303" d="M403.791,293.972v5.974a.267.267,0,0,1-.267.267H400.44a.267.267,0,0,1-.268-.267V294.39c0-1.462-.522-2.46-1.833-2.46a1.979,1.979,0,0,0-1.856,1.323,2.466,2.466,0,0,0-.12.882v5.811a.268.268,0,0,1-.268.267h-3.083a.266.266,0,0,1-.267-.267c.007-1.48.038-8.659.006-10.346a.266.266,0,0,1,.267-.271H396.1a.268.268,0,0,1,.267.268v1.275c-.007.012-.018.024-.024.036h.024v-.036a3.594,3.594,0,0,1,3.261-1.8c2.381,0,4.166,1.556,4.166,4.9Zm-16.4,6.241h3.084a.267.267,0,0,0,.267-.267V289.6a.268.268,0,0,0-.267-.268h-3.084a.268.268,0,0,0-.267.268v10.349A.267.267,0,0,0,387.393,300.213Z" transform="translate(-387.126 -289.074)" fill="#19212b" stroke="rgba(0,0,0,0)" stroke-width="1"/>
      </g>
    </g>
  </g>
</svg>
